<?xml version="1.0" encoding="iso-8859-1"?>
<!-- Generator: Adobe Illustrator 19.0.0, SVG Export Plug-In . SVG Version: 6.00 Build 0)  -->
<svg version="1.1" id="Layer_1" xmlns="http://www.w3.org/2000/svg" xmlns:xlink="http://www.w3.org/1999/xlink" x="0px" y="0px"
	 viewBox="0 0 512 512" style="enable-background:new 0 0 512 512;" xml:space="preserve">
<g>
	<g>
		<g>
			<path d="M256,218.263c-20.808,0-37.737,16.929-37.737,37.737s16.929,37.737,37.737,37.737s37.737-16.929,37.737-37.737
				S276.808,218.263,256,218.263z M256,273.339c-9.561,0-17.339-7.778-17.339-17.339s7.778-17.339,17.339-17.339
				s17.339,7.778,17.339,17.339S265.561,273.339,256,273.339z"/>
			<path d="M437.02,74.98C388.667,26.628,324.38,0,256,0S123.333,26.628,74.98,74.98C26.628,123.333,0,187.62,0,256
				s26.628,132.667,74.98,181.02C123.333,485.372,187.62,512,256,512s132.667-26.628,181.02-74.98
				C485.372,388.667,512,324.38,512,256S485.372,123.333,437.02,74.98z M256,491.602c-129.911,0-235.602-105.69-235.602-235.602
				S126.089,20.398,256,20.398S491.602,126.089,491.602,256S385.911,491.602,256,491.602z"/>
		</g>
	</g>
</g>
<g>
	<g>
		<path d="M256,46.621c-39.909,0-72.378,32.469-72.378,72.379s32.468,72.378,72.378,72.378s72.378-32.469,72.378-72.378
			C328.378,79.089,295.909,46.621,256,46.621z M256,170.977c-28.662,0-51.979-23.317-51.979-51.979s23.317-51.98,51.979-51.98
			s51.979,23.318,51.979,51.98S284.662,170.977,256,170.977z"/>
	</g>
</g>
<g>
	<g>
		<path d="M190.058,180.903c-8.777-17.225-23.738-30.002-42.124-35.977c-37.959-12.332-78.869,8.514-91.202,46.47
			c-5.974,18.387-4.43,37.999,4.347,55.226c8.776,17.225,23.737,30.003,42.123,35.977c7.362,2.392,14.919,3.579,22.442,3.579
			c11.266,0,22.455-2.662,32.783-7.926c17.225-8.777,30.003-23.738,35.977-42.124C200.379,217.742,198.834,198.129,190.058,180.903z
			 M175.004,229.826c-4.291,13.205-13.467,23.949-25.838,30.252s-26.458,7.411-39.661,3.121
			c-13.205-4.291-23.949-13.467-30.252-25.838s-7.412-26.456-3.121-39.661c7.129-21.943,27.555-35.922,49.472-35.922
			c5.309,0,10.71,0.821,16.026,2.549c13.205,4.291,23.949,13.467,30.252,25.838C178.186,202.536,179.295,216.621,175.004,229.826z"
			/>
	</g>
</g>
<g>
	<g>
		<path d="M246.876,355.773c-3.024-19.096-13.304-35.87-28.944-47.234c-32.289-23.458-77.64-16.275-101.099,16.013
			c-23.457,32.288-16.274,77.639,16.013,101.098c12.501,9.082,27.23,13.839,42.389,13.839c3.807,0,7.643-0.3,11.476-0.907
			c19.096-3.024,35.87-13.304,47.234-28.944C245.307,393.997,249.9,374.868,246.876,355.773z M217.441,397.648
			c-8.16,11.232-20.208,18.616-33.92,20.787c-13.712,2.172-27.451-1.126-38.685-9.287c-23.188-16.847-28.347-49.417-11.5-72.605
			c8.16-11.232,20.208-18.616,33.92-20.787c13.716-2.173,27.452,1.126,38.685,9.287c11.232,8.16,18.615,20.208,20.787,33.92
			C228.901,372.677,225.602,386.415,217.441,397.648z"/>
	</g>
</g>
<g>
	<g>
		<path d="M395.167,324.552c-23.459-32.288-68.811-39.471-101.099-16.013c-15.642,11.364-25.92,28.139-28.944,47.234
			c-3.025,19.094,1.568,38.225,12.932,53.865c11.364,15.64,28.139,25.92,47.234,28.944c3.834,0.607,7.668,0.907,11.476,0.907
			c15.158,0,29.889-4.757,42.389-13.838C411.442,402.192,418.625,356.84,395.167,324.552z M367.164,409.147
			c-11.232,8.161-24.971,11.458-38.685,9.287c-13.713-2.172-25.76-9.555-33.921-20.787c-8.161-11.232-11.459-24.971-9.287-38.685
			c2.172-13.713,9.554-25.76,20.787-33.921c8.978-6.522,19.556-9.939,30.443-9.939c2.733,0,5.489,0.215,8.242,0.651
			c13.713,2.172,25.76,9.555,33.92,20.787C395.511,359.729,390.352,392.3,367.164,409.147z"/>
	</g>
</g>
<g>
	<g>
		<path d="M455.268,191.397c-12.333-37.955-53.246-58.8-91.202-46.47c-18.387,5.974-33.346,18.751-42.124,35.977
			c-8.776,17.225-10.32,36.838-4.346,55.225c5.974,18.387,18.751,33.346,35.977,42.124c10.331,5.263,21.516,7.925,32.783,7.925
			c7.522,0,15.082-1.187,22.442-3.578c18.386-5.974,33.346-18.751,42.123-35.977C459.698,229.396,461.242,209.784,455.268,191.397z
			 M432.747,237.361c-6.303,12.372-17.047,21.547-30.252,25.838c-13.204,4.292-27.289,3.183-39.661-3.121
			c-12.372-6.303-21.547-17.047-25.838-30.252c-4.291-13.205-3.182-27.289,3.121-39.661c6.303-12.372,17.047-21.547,30.252-25.838
			c5.317-1.728,10.714-2.549,16.025-2.549c21.915,0,42.344,13.98,49.473,35.922C440.159,210.905,439.05,224.989,432.747,237.361z"/>
	</g>
</g>
<g>
	<g>
		<path d="M472.223,245.801c-5.633,0-10.199,4.566-10.199,10.199c0,32.463-7.33,63.522-21.787,92.315
			c-2.528,5.034-0.497,11.164,4.538,13.691c1.468,0.737,3.03,1.086,4.568,1.086c3.735,0,7.332-2.059,9.122-5.624
			c15.896-31.66,23.957-65.799,23.957-101.469C482.422,250.367,477.856,245.801,472.223,245.801z"/>
	</g>
</g>
<g>
	<g>
		<path d="M440.253,369.668c-4.647-3.184-10.995-1.999-14.179,2.647c-1.189,1.735-2.417,3.469-3.649,5.155
			c-3.325,4.547-2.334,10.928,2.213,14.253c1.815,1.328,3.923,1.966,6.011,1.966c3.142,0,6.244-1.447,8.241-4.18
			c1.354-1.852,2.704-3.757,4.009-5.663C446.085,379.2,444.899,372.852,440.253,369.668z"/>
	</g>
</g>
<g>
</g>
<g>
</g>
<g>
</g>
<g>
</g>
<g>
</g>
<g>
</g>
<g>
</g>
<g>
</g>
<g>
</g>
<g>
</g>
<g>
</g>
<g>
</g>
<g>
</g>
<g>
</g>
<g>
</g>
</svg>
